<svg xmlns="http://www.w3.org/2000/svg" width="701.003" height="25.769" xml:space="preserve"><path d="M102.234 0h1v27h-1zM13.75 8a5.5 5.5 0 0 0-5.508-5.5H0v22h2.75v-11l7.65 11h3.35l-7.649-11h2.142A5.5 5.5 0 0 0 13.75 8M8.242 5.25A2.746 2.746 0 0 1 11 8a2.747 2.747 0 0 1-2.758 2.75H2.75v-5.5h5.492zm59.524 11.59h2.187v7.66h1.094v-7.66h2.187v-1.094h-5.468zm-36.84-1.094v6.367l-3.282-6.367h-1.095V24.5h1.095v-6.366l3.282 6.366h1.095v-8.754zm-7.298 0v6.561c0 .421-.224.782-.583.974-.172.092-.323.125-.821.125h-.474c-.5 0-.649-.033-.821-.125a1.096 1.096 0 0 1-.583-.974v-6.561h-1.095l.001 6.561c0 .828.445 1.556 1.162 1.938.41.22.77.257 1.336.257h.474c.567 0 .925-.037 1.335-.255a2.18 2.18 0 0 0 1.163-1.939v-6.561h-1.094zm21.554 1.223c.174-.094.323-.127.824-.127l2.973-.002v-1.095h-2.973c-.566 0-.926.037-1.336.257a2.173 2.173 0 0 0-1.163 1.938v4.361c0 .828.445 1.56 1.163 1.939.41.219.77.255 1.336.255l2.973.003v-1.096l-2.973-.001c-.501 0-.65-.035-.824-.127a1.093 1.093 0 0 1-.58-.975v-1.633h4.377v-1.097h-4.377v-1.633c0-.408.222-.777.58-.967m9.064-.129a1.094 1.094 0 1 1 0 2.189h-2.184v-2.188l2.184-.001zm2.193 1.095a2.188 2.188 0 0 0-2.193-2.188h-3.279v8.755h1.096v-4.377l3.043 4.377h1.334l-3.046-4.377h.853a2.192 2.192 0 0 0 2.192-2.19m19.19-2.212h-1.217l2.19 4.502v4.252h1.093v-4.252l2.188-4.502h-1.215l-1.52 3.125zm-17.76 1.185c-.219.412-.256.733-.256 1.302 0 .563.037.887.256 1.299a2.176 2.176 0 0 0 1.939 1.162h1.082c.422 0 .782.223.973.583.092.173.127.286.127.783 0 .5-.035.611-.127.787-.19.357-.551.58-.973.58h-3.277v1.097h3.277c.827 0 1.559-.445 1.939-1.163.219-.41.254-.732.254-1.301 0-.564-.035-.889-.254-1.299a2.176 2.176 0 0 0-1.939-1.164h-1.082c-.423 0-.783-.222-.973-.58-.094-.174-.129-.286-.129-.784 0-.501.035-.613.129-.787.189-.358.55-.582.973-.582h3.275v-1.094h-3.275a2.172 2.172 0 0 0-1.939 1.161m-16.668-1.162-1.607 6.428-1.608-6.428h-1.127l2.171 8.682-.016.066h1.16l-.016-.066 2.169-8.682zm-7.207.001h1.094v8.754h-1.094zm30.905 0h1.095v8.754h-1.095zM26.508 2.5h1.097v8.776h-1.097zm38.828 0h1.098v8.776h-1.098zm-35.96 1.097h2.194v7.68h1.098v-7.68h2.193V2.5h-5.485zm6.903.069c-.219.411-.256.733-.256 1.303 0 .568.037.891.256 1.303a2.184 2.184 0 0 0 1.945 1.166h1.084c.424 0 .785.225.976.584.093.174.128.287.128.788 0 .5-.035.612-.128.788-.19.359-.552.583-.976.583h-3.285v1.097h3.285c.83 0 1.563-.446 1.945-1.165.219-.412.256-.734.256-1.303s-.037-.892-.256-1.304a2.182 2.182 0 0 0-1.945-1.166h-1.084c-.424 0-.785-.225-.977-.582-.092-.174-.128-.287-.128-.789s.036-.614.128-.788c.191-.359.553-.583.977-.583h3.285V2.5h-3.285c-.829 0-1.562.446-1.945 1.166M72.453 2.5l-2.948 3.471V2.5h-1.098v8.777h1.098V7.809l2.948 3.468h1.44l-3.73-4.388 3.73-4.389zm14.274 0v6.383L83.436 2.5h-1.098v8.777h1.098V4.895l3.291 6.382h1.097V2.5zM47.696 9.077c0 .424-.224.784-.583.977-.174.094-.324.129-.825.129l-.476-.002c-.5 0-.65-.033-.824-.127a1.1 1.1 0 0 1-.584-.977V2.501h-1.098v6.576c0 .829.447 1.563 1.166 1.944.412.219.771.256 1.34.256h.476c.567 0 .929-.037 1.34-.256a2.18 2.18 0 0 0 1.165-1.944V2.501h-1.097v6.576zm11.345-6.321A2.184 2.184 0 0 0 57.876 4.7v4.375a2.18 2.18 0 0 0 1.165 1.944c.412.22.771.257 1.339.257h2.981V10.18l-2.981-.001c-.5 0-.649-.034-.823-.128a1.101 1.101 0 0 1-.584-.977V7.436h4.389V6.339h-4.389V4.698c0-.414.225-.782.584-.976.174-.092.323-.127.823-.127l2.981-.002V2.496l-2.981.003c-.567.003-.927.041-1.339.257M20.348 5.791V3.598h2.191c.613 0 1.1.492 1.1 1.097 0 .606-.486 1.098-1.1 1.098l-2.191-.002zm4.388-1.097c0-1.21-.979-2.193-2.197-2.193H19.25v8.776h1.098V6.889l3.053 4.389h1.336l-3.053-4.389h.855a2.194 2.194 0 0 0 2.197-2.195M76.151 6.34V4.7c0-.424.224-.784.584-.977.175-.092.323-.127.824-.127h.476c.5 0 .65.035.824.129.359.189.584.561.584.976V6.34h-3.292zm3.224-3.584c-.412-.22-.772-.255-1.34-.255l-.476-.001c-.567 0-.929.036-1.339.256A2.178 2.178 0 0 0 75.054 4.7v6.576h1.097v-3.84h3.292v3.84h1.096V4.701c0-.83-.445-1.562-1.164-1.945M56.078 2.5h-1.197l-1.547 3.561L51.787 2.5h-1.195v8.777h1.096V5.025l1.048 2.413h1.197l1.047-2.413v6.252h1.098zm61.246 7.162V.208h3.051c.672 0 1.232.12 1.684.361s.79.575 1.02 1.002c.23.428.345.915.345 1.467 0 .551-.115 1.036-.345 1.459a2.385 2.385 0 0 1-1.018.987c-.449.236-1.006.354-1.671.354h-2.599V5.05h2.576c.492 0 .901-.082 1.229-.245.328-.162.573-.396.733-.697.162-.301.244-.658.244-1.069 0-.412-.082-.773-.246-1.082a1.667 1.667 0 0 0-.735-.72c-.329-.17-.742-.254-1.24-.254h-2.165v8.681l-.863-.002zm4.168-4.266 2.328 4.266h-.998l-2.304-4.266h.974zm4.822-4.044a.609.609 0 0 1-.434-.173c-.119-.116-.18-.255-.18-.418s.061-.303.18-.418a.613.613 0 0 1 .434-.173c.17 0 .314.059.436.173.119.115.18.255.18.418s-.061.302-.18.418a.61.61 0 0 1-.436.173m-.418 1.219h.826v7.091h-.826V2.571zm6.241.715h-3.385v-.715h3.385v.715zM129.809.872h.826V7.81c0 .295.051.526.153.694a.84.84 0 0 0 .396.355c.164.068.338.104.522.104.108 0 .2-.008.276-.021.078-.015.146-.028.203-.044l.176.742c-.079.031-.178.06-.295.086a2.036 2.036 0 0 1-.434.039c-.303 0-.593-.065-.871-.198a1.703 1.703 0 0 1-.685-.591c-.179-.262-.269-.586-.269-.975V.872h.002zm9.318 3.255-.754.211a2.035 2.035 0 0 0-.313-.576 1.437 1.437 0 0 0-.529-.41c-.216-.101-.486-.153-.806-.153-.479 0-.874.114-1.183.344-.308.228-.461.521-.461.881a.95.95 0 0 0 .316.742c.21.188.536.338.977.447l1.07.266c.594.145 1.039.373 1.337.688.298.313.446.708.446 1.182 0 .4-.111.757-.333 1.066-.222.311-.53.555-.927.73-.395.178-.852.267-1.373.267-.692 0-1.262-.156-1.713-.469-.448-.313-.736-.766-.862-1.355l.79-.191c.102.42.3.738.597.955.298.215.688.321 1.175.321.545 0 .981-.122 1.307-.367.326-.243.49-.552.49-.921a1 1 0 0 0-.287-.722c-.191-.196-.48-.34-.867-.432l-1.159-.277c-.616-.146-1.071-.381-1.367-.702-.295-.318-.442-.717-.442-1.189 0-.393.105-.734.318-1.031a2.14 2.14 0 0 1 .877-.7 3.05 3.05 0 0 1 1.274-.254c.649 0 1.169.146 1.558.44.389.291.67.694.844 1.209m6.848 2.824V2.57h.821v7.092h-.821V8.484h-.064c-.166.363-.43.666-.79.907-.36.242-.8.362-1.319.362-.453 0-.855-.101-1.205-.3a2.04 2.04 0 0 1-.826-.872c-.201-.386-.301-.858-.301-1.419V2.569h.821v4.543c0 .556.163 1 .489 1.336.326.338.744.506 1.257.506.319 0 .627-.075.922-.229.296-.154.539-.379.729-.676.191-.298.287-.663.287-1.098m3.486 2.711V2.57h.799v1.09h.074c.141-.365.377-.653.709-.864.33-.211.729-.316 1.192-.316.489 0 .892.115 1.207.344.315.229.552.545.709.944h.06c.16-.394.422-.707.782-.938.362-.232.802-.35 1.319-.35.658 0 1.178.207 1.561.621.381.414.571 1.018.571 1.813v4.75h-.821v-4.75c0-.562-.143-.979-.43-1.262-.286-.279-.663-.42-1.13-.42-.542 0-.959.166-1.252.499-.292.332-.438.754-.438 1.265v4.668h-.841V4.84c0-.48-.133-.868-.401-1.164-.268-.295-.645-.443-1.131-.443a1.643 1.643 0 0 0-1.494.908 2.09 2.09 0 0 0-.224.979v4.543l-.821-.001zm14.506.148c-.662 0-1.233-.155-1.717-.464a3.066 3.066 0 0 1-1.119-1.288c-.264-.55-.395-1.183-.395-1.899 0-.715.131-1.349.395-1.903a3.165 3.165 0 0 1 1.094-1.308c.467-.315 1.006-.474 1.617-.474.385 0 .756.069 1.113.21s.678.354.963.643c.284.287.51.649.676 1.084.166.437.25.95.25 1.546v.403h-5.541v-.723h4.701c0-.456-.093-.866-.275-1.23a2.21 2.21 0 0 0-.762-.866 2.007 2.007 0 0 0-1.125-.317c-.449 0-.845.12-1.186.36a2.454 2.454 0 0 0-.801.95c-.193.395-.29.824-.293 1.293v.435c0 .563.097 1.054.293 1.475.195.42.473.745.832.978.361.229.787.346 1.279.346.336 0 .631-.052.885-.157.254-.104.468-.245.642-.422a1.82 1.82 0 0 0 .394-.584l.781.254a2.286 2.286 0 0 1-.529.826 2.65 2.65 0 0 1-.914.605c-.364.15-.784.227-1.258.227m5.564-8.458a.606.606 0 0 1-.434-.173c-.12-.116-.18-.255-.18-.418s.06-.303.18-.418a.608.608 0 0 1 .434-.173c.17 0 .314.059.434.173.121.115.181.255.181.418s-.06.302-.181.418a.602.602 0 0 1-.434.173m-.42 1.219h.827v7.091h-.827V2.571zm3.504-2.365h.82v9.455h-.82V.206zm.748 6.777-.011-1.075h.185l3.324-3.338h1.039l-3.283 3.287-.072.014-1.182 1.112zm3.67 2.679-2.881-3.644.59-.567 3.344 4.211h-1.053zm4.745.16c-.429 0-.819-.084-1.173-.25-.354-.168-.637-.411-.846-.729s-.313-.705-.313-1.161c0-.352.064-.646.197-.886s.32-.438.563-.592.531-.274.864-.363c.332-.09.697-.159 1.098-.208l1.01-.13c.274-.036.484-.097.629-.176.145-.08.217-.209.217-.388v-.166c0-.483-.143-.865-.432-1.143-.287-.279-.701-.418-1.238-.418-.512 0-.928.11-1.25.337-.321.224-.547.488-.676.793l-.779-.28c.158-.389.381-.699.664-.931.283-.232.6-.399.951-.503a3.724 3.724 0 0 1 1.065-.155c.271 0 .554.035.849.105.293.07.565.193.818.367.252.174.457.416.614.726.157.309.235.7.235 1.175V9.66h-.822V8.539h-.051a2.245 2.245 0 0 1-1.167 1.093c-.289.128-.633.19-1.027.19m.111-.752c.437 0 .815-.097 1.135-.291.32-.192.568-.451.742-.771.174-.322.26-.677.26-1.063V5.92a.796.796 0 0 1-.307.155 3.633 3.633 0 0 1-.494.123c-.186.035-.371.064-.557.09-.184.025-.35.047-.498.064-.4.049-.742.127-1.025.231-.282.104-.5.247-.65.431s-.227.418-.227.704c0 .431.154.765.463 1 .306.235.693.352 1.158.352m6.437-3.84v4.432h-.822V2.571h.8v1.112h.073a2 2 0 0 1 .777-.875c.354-.221.789-.33 1.309-.33.479 0 .896.1 1.259.297.36.199.644.49.845.875.201.386.303.857.303 1.418v4.594h-.822V5.119c0-.582-.162-1.042-.487-1.38-.325-.339-.759-.509-1.304-.509-.372 0-.703.08-.993.24-.289.16-.517.391-.685.689-.168.301-.253.657-.253 1.071M206.207.206h.863v6.261c0 .644-.151 1.219-.453 1.725-.301.507-.721.904-1.258 1.195s-1.16.437-1.871.437c-.709 0-1.332-.146-1.869-.438a3.243 3.243 0 0 1-1.262-1.195c-.301-.506-.451-1.079-.451-1.723V.208h.863v6.199c0 .502.111.948.336 1.342.226.393.541.7.949.926.407.225.885.338 1.434.338.548 0 1.025-.113 1.435-.338.41-.226.726-.533.95-.926.222-.394.334-.84.334-1.342V.206zm4.502 5.024v4.432h-.822V2.571h.799v1.112h.074c.166-.363.425-.655.777-.875.353-.221.789-.33 1.309-.33.477 0 .896.1 1.259.297.36.199.644.49.845.875.2.386.301.857.301 1.418v4.594h-.82V5.119c0-.582-.162-1.042-.488-1.38-.324-.339-.758-.509-1.303-.509-.373 0-.703.08-.993.24s-.519.391-.687.689c-.167.302-.251.657-.251 1.071m7.601-3.878a.606.606 0 0 1-.435-.173c-.121-.116-.181-.255-.181-.418s.06-.303.181-.418a.609.609 0 0 1 .435-.173c.169 0 .313.059.433.173.12.115.18.255.18.418s-.06.302-.18.418a.603.603 0 0 1-.433.173m-.421 1.219h.826v7.091h-.826V2.571zm8.924-.001-2.59 7.092h-.877l-2.591-7.092h.891l2.105 6.007h.065l2.105-6.007zm4.638 7.24c-.662 0-1.234-.155-1.717-.464a3.052 3.052 0 0 1-1.119-1.288c-.264-.55-.395-1.183-.395-1.899 0-.715.131-1.349.395-1.903a3.17 3.17 0 0 1 1.093-1.308 2.837 2.837 0 0 1 1.618-.474c.385 0 .756.069 1.113.21s.678.354.963.643c.283.287.509.649.675 1.084.167.437.25.95.25 1.546v.403h-5.54v-.723h4.7c0-.456-.093-.866-.274-1.23a2.21 2.21 0 0 0-.762-.866 2.012 2.012 0 0 0-1.125-.317c-.449 0-.844.12-1.186.36a2.454 2.454 0 0 0-.801.95 2.929 2.929 0 0 0-.293 1.293v.435c0 .563.098 1.054.293 1.475.194.42.473.745.832.978.361.229.786.346 1.279.346.335 0 .63-.052.884-.157a1.883 1.883 0 0 0 1.037-1.006l.781.254a2.313 2.313 0 0 1-.529.826 2.659 2.659 0 0 1-.914.605c-.365.15-.783.227-1.258.227m5.17-.148V2.57h.798v1.09h.062c.141-.355.388-.646.74-.864a2.2 2.2 0 0 1 1.197-.33 11.235 11.235 0 0 1 .434.014v.835a4.658 4.658 0 0 0-.192-.026 2.014 2.014 0 0 0-.3-.02c-.37 0-.698.078-.986.233-.288.154-.516.37-.682.644a1.774 1.774 0 0 0-.248.938v4.579l-.823-.001zm9.869-5.535-.752.211a2.035 2.035 0 0 0-.313-.576 1.42 1.42 0 0 0-.529-.41c-.217-.102-.485-.153-.805-.153-.481 0-.874.114-1.183.344-.308.228-.461.521-.461.881 0 .305.105.552.315.742.211.188.537.338.978.447l1.069.266c.595.145 1.04.373 1.337.688.297.313.446.708.446 1.182 0 .4-.111.757-.333 1.066-.221.312-.53.555-.926.73-.396.178-.854.267-1.373.267-.693 0-1.264-.156-1.713-.469-.449-.313-.736-.766-.863-1.355l.79-.191c.101.42.3.738.597.955.297.215.689.321 1.176.321.545 0 .98-.122 1.307-.367.326-.243.488-.552.488-.921a.998.998 0 0 0-.285-.722c-.191-.196-.48-.34-.869-.432l-1.158-.277c-.615-.146-1.07-.381-1.366-.702-.296-.318-.442-.717-.442-1.189 0-.393.105-.734.317-1.031.212-.299.505-.53.877-.7a3.055 3.055 0 0 1 1.275-.254c.649 0 1.168.146 1.557.44.389.291.67.694.842 1.209m2.783-2.775a.607.607 0 0 1-.434-.173c-.119-.116-.18-.255-.18-.418s.061-.303.18-.418a.612.612 0 0 1 .434-.173c.17 0 .314.059.436.173.119.115.18.255.18.418s-.061.302-.18.418a.61.61 0 0 1-.436.173m-.419 1.219h.826v7.091h-.826V2.571zm6.241.715h-3.384v-.715h3.384v.715zM252.768.872h.827V7.81c0 .295.05.526.151.694a.85.85 0 0 0 .396.355c.164.068.338.104.521.104.108 0 .201-.008.277-.021.077-.015.145-.028.203-.044l.176.742c-.08.031-.178.06-.296.086a2.026 2.026 0 0 1-.433.039c-.303 0-.592-.065-.87-.198a1.696 1.696 0 0 1-.687-.591c-.179-.262-.268-.586-.268-.975V.872h.003zm5.353 11.448a2.27 2.27 0 0 1-.457-.045 1.657 1.657 0 0 1-.338-.103l.223-.727c.279.086.529.119.748.097a.923.923 0 0 0 .58-.296c.17-.176.32-.439.453-.797l.258-.721-2.607-7.16h.891l2.105 6.007h.064l2.104-6.007h.892l-3 8.213a3.025 3.025 0 0 1-.467.856 1.817 1.817 0 0 1-.639.513c-.243.115-.511.17-.81.17m-134.256 6.948a3.504 3.504 0 0 0-.377-.883 2.992 2.992 0 0 0-.617-.727 2.739 2.739 0 0 0-.846-.486 3.062 3.062 0 0 0-1.063-.176c-.617 0-1.168.16-1.654.479-.486.32-.87.783-1.15 1.386-.283.604-.424 1.329-.424 2.179 0 .847.143 1.571.426 2.175.283.604.672 1.065 1.166 1.387.494.322 1.06.483 1.695.483.582 0 1.096-.131 1.542-.389.447-.26.796-.628 1.046-1.107.252-.479.373-1.052.367-1.713l.277.088h-3.029v-.776h3.592v.776c0 .806-.162 1.505-.488 2.091a3.433 3.433 0 0 1-1.344 1.362c-.57.319-1.224.479-1.963.479-.824 0-1.546-.198-2.165-.598-.618-.397-1.099-.961-1.442-1.688-.344-.729-.514-1.584-.514-2.568 0-.742.098-1.411.295-2.009a4.51 4.51 0 0 1 .838-1.532c.361-.426.789-.75 1.285-.978a3.898 3.898 0 0 1 1.645-.34c.516 0 .99.082 1.419.246.429.162.808.387 1.135.672.328.283.599.611.808.982.211.37.354.766.428 1.184l-.888.001zm3.489 6.5v-7.09h.799v1.09h.061c.141-.357.389-.646.741-.866s.752-.33 1.198-.33c.066 0 .143.002.226.005s.151.007.207.01v.835a4.418 4.418 0 0 0-.192-.027 2.189 2.189 0 0 0-.301-.019c-.369 0-.697.077-.986.232a1.754 1.754 0 0 0-.681.645 1.774 1.774 0 0 0-.249.937v4.58l-.823-.002zm7.085.162c-.428 0-.818-.084-1.172-.252s-.636-.41-.845-.729c-.209-.316-.313-.705-.313-1.161 0-.351.065-.646.197-.886.133-.24.321-.437.564-.591.242-.154.531-.275.863-.364.332-.09.697-.159 1.098-.208.398-.05.734-.093 1.01-.13.275-.036.484-.095.629-.175s.217-.209.217-.389v-.166c0-.482-.143-.863-.431-1.143-.288-.278-.701-.418-1.24-.418-.51 0-.927.112-1.249.337-.32.226-.547.489-.675.793l-.78-.28c.159-.389.381-.697.664-.931.283-.232.6-.399.951-.503a3.611 3.611 0 0 1 1.914-.049c.293.071.566.192.818.366.252.175.457.416.615.726.156.311.234.701.234 1.175v4.815h-.822v-1.122h-.051a2.22 2.22 0 0 1-.438.609 2.295 2.295 0 0 1-.73.483c-.29.129-.633.193-1.028.193m.112-.752c.438 0 .816-.099 1.137-.291.319-.194.566-.452.739-.773.174-.321.261-.677.261-1.063v-1.024a.803.803 0 0 1-.306.157 3.95 3.95 0 0 1-.495.121 10.76 10.76 0 0 1-.557.091c-.184.024-.35.046-.498.064-.4.05-.741.126-1.024.23-.282.104-.501.248-.651.431-.15.184-.227.418-.227.704 0 .433.155.765.462 1s.695.353 1.159.353m8.172.738c-.58 0-1.09-.154-1.527-.463-.437-.308-.777-.736-1.021-1.287-.246-.552-.367-1.191-.367-1.926 0-.729.121-1.368.367-1.918.244-.55.586-.978 1.025-1.284.441-.306.954-.459 1.538-.459.431 0 .79.076 1.076.229s.515.341.687.565c.174.226.307.442.402.655h.074V16.31h.826v9.455H145V24.45h-.098a3.15 3.15 0 0 1-.406.663 2.124 2.124 0 0 1-.695.57c-.287.156-.647.233-1.078.233m.097-.753c.458 0 .85-.125 1.172-.376.324-.251.571-.597.742-1.038.17-.441.256-.947.256-1.521 0-.565-.085-1.066-.254-1.502-.169-.437-.416-.777-.739-1.024-.323-.248-.716-.372-1.177-.372-.475 0-.874.129-1.198.386a2.386 2.386 0 0 0-.739 1.041c-.166.438-.25.93-.25 1.473 0 .552.084 1.049.254 1.492.168.442.416.795.74 1.055.324.258.723.386 1.193.386m10.219-2.104v-4.381h.822v7.09h-.822v-1.176h-.064c-.166.361-.43.664-.789.905-.36.242-.801.362-1.32.362a2.4 2.4 0 0 1-1.205-.298 2.067 2.067 0 0 1-.827-.875c-.2-.385-.299-.857-.299-1.418v-4.592h.821v4.543c0 .554.162.998.488 1.336.326.336.745.504 1.256.504.32 0 .629-.075.924-.229.295-.152.539-.379.729-.676s.286-.662.286-1.095m5.454 2.871c-.429 0-.819-.084-1.173-.252s-.635-.41-.844-.729c-.211-.316-.314-.705-.314-1.161 0-.351.066-.646.197-.886.134-.24.32-.437.563-.591.244-.154.532-.275.864-.364.332-.09.697-.159 1.098-.208.398-.05.734-.093 1.01-.13.274-.036.484-.095.629-.175.146-.08.217-.209.217-.389v-.166c0-.482-.143-.863-.43-1.143-.289-.278-.701-.418-1.24-.418-.512 0-.928.112-1.25.337-.32.226-.547.489-.676.793l-.779-.28c.16-.389.382-.697.664-.931.283-.231.601-.399.951-.503a3.618 3.618 0 0 1 1.914-.049c.293.071.566.192.818.366.253.175.457.416.615.726.156.311.234.701.234 1.175v4.815h-.822v-1.122h-.051a2.22 2.22 0 0 1-.438.609 2.295 2.295 0 0 1-.73.483c-.29.129-.633.193-1.027.193m.111-.752c.438 0 .815-.099 1.137-.291.32-.194.566-.452.74-.773s.26-.677.26-1.063v-1.024a.801.801 0 0 1-.307.157 3.931 3.931 0 0 1-.494.121c-.186.037-.371.064-.556.091l-.499.064c-.4.05-.74.126-1.023.23-.283.104-.502.248-.652.431-.15.184-.227.418-.227.704 0 .433.154.765.463 1 .307.235.693.353 1.158.353m8.185-5.785h-3.384v-.715h3.384v.715zm-2.326-2.414h.826v6.938c0 .297.051.526.152.694s.232.286.396.356c.164.068.338.103.521.103a1.692 1.692 0 0 0 .48-.064l.176.743a2.002 2.002 0 0 1-.731.125c-.302 0-.592-.066-.869-.199a1.695 1.695 0 0 1-.686-.592c-.18-.261-.268-.587-.268-.975v-7.131h.003zm7.164 8.937c-.662 0-1.233-.154-1.717-.465a3.06 3.06 0 0 1-1.119-1.288c-.264-.55-.395-1.184-.395-1.899 0-.714.131-1.348.395-1.903a3.177 3.177 0 0 1 1.094-1.308 2.832 2.832 0 0 1 1.617-.474c.385 0 .756.07 1.113.211.357.14.678.354.963.642.284.289.51.649.676 1.086.166.435.25.949.25 1.543v.406h-5.541v-.725h4.701c0-.456-.093-.865-.275-1.23a2.193 2.193 0 0 0-.762-.865 2 2 0 0 0-1.125-.318c-.449 0-.844.12-1.186.359-.341.24-.609.558-.801.951-.193.395-.29.825-.293 1.293v.435c0 .563.097 1.055.293 1.476.195.421.473.745.833.976.36.231.786.348 1.278.348.336 0 .631-.053.885-.157a1.879 1.879 0 0 0 1.036-1.006l.781.254a2.274 2.274 0 0 1-.529.825 2.658 2.658 0 0 1-.914.607 3.28 3.28 0 0 1-1.258.226m14.682-7.238a1.716 1.716 0 0 0-.697-1.256c-.411-.312-.93-.468-1.555-.468-.44 0-.828.076-1.162.228s-.594.358-.785.625a1.533 1.533 0 0 0-.282.908c0 .248.053.467.161.653.107.188.253.351.436.483.184.134.387.248.61.344.224.095.448.175.676.24l.997.286c.303.082.604.188.904.317.302.13.578.291.83.487.25.194.451.436.604.715.153.282.229.62.229 1.016 0 .504-.131.957-.393 1.359-.261.404-.636.725-1.126.958-.489.236-1.075.354-1.759.354-.643 0-1.202-.106-1.676-.32a2.704 2.704 0 0 1-1.116-.889 2.48 2.48 0 0 1-.457-1.316h.886c.03.373.154.688.369.946s.495.454.84.589c.346.134.73.201 1.154.201a3.14 3.14 0 0 0 1.258-.238c.368-.158.658-.38.868-.664.211-.285.315-.617.315-.996 0-.317-.082-.588-.248-.805s-.398-.399-.694-.547a6.458 6.458 0 0 0-1.033-.394l-1.131-.333c-.741-.221-1.317-.527-1.726-.919-.41-.39-.614-.889-.614-1.494 0-.509.136-.954.407-1.342a2.726 2.726 0 0 1 1.109-.903c.467-.219.989-.326 1.572-.326.587 0 1.107.106 1.561.324.451.215.812.51 1.078.888.266.377.407.806.426 1.286l-.836.003zm6.146 7.238c-.633 0-1.186-.159-1.654-.478a3.12 3.12 0 0 1-1.092-1.301c-.258-.552-.389-1.179-.389-1.884 0-.711.133-1.344.395-1.897a3.21 3.21 0 0 1 1.097-1.305c.468-.314 1.013-.474 1.63-.474.475 0 .904.093 1.288.275a2.48 2.48 0 0 1 1.427 1.926h-.83c-.088-.399-.293-.742-.621-1.026s-.744-.428-1.25-.428c-.451 0-.853.122-1.199.367-.348.244-.619.585-.815 1.021-.194.437-.293.939-.293 1.512 0 .576.095 1.086.286 1.526.191.441.46.786.807 1.036.346.249.75.373 1.215.373.314 0 .602-.06.861-.178s.479-.286.656-.505c.176-.219.295-.479.357-.78h.83a2.515 2.515 0 0 1-1.392 1.93 2.87 2.87 0 0 1-1.314.29m5.774-4.58v4.433h-.822v-9.455h.822v3.477h.074a2 2 0 0 1 .773-.878c.349-.218.792-.325 1.326-.325.48 0 .902.098 1.266.295.364.197.646.487.85.873.203.384.305.856.305 1.42v4.595h-.826v-4.543c0-.585-.163-1.046-.487-1.383-.325-.337-.762-.505-1.313-.505-.379 0-.715.08-1.01.239a1.76 1.76 0 0 0-.701.689c-.172.299-.257.656-.257 1.068m9.98 4.58a2.878 2.878 0 0 1-1.623-.467 3.156 3.156 0 0 1-1.101-1.291c-.265-.549-.397-1.185-.397-1.903 0-.727.133-1.366.397-1.918a3.124 3.124 0 0 1 1.101-1.293c.471-.31 1.012-.465 1.623-.465.612 0 1.152.156 1.621.467.467.312.834.742 1.102 1.293.265.552.398 1.189.398 1.916 0 .72-.133 1.354-.396 1.903-.266.55-.633.979-1.102 1.291-.47.311-1.011.467-1.623.467m0-.753c.492 0 .91-.132 1.252-.396.342-.265.601-.616.777-1.057.178-.439.266-.926.266-1.454 0-.53-.088-1.017-.266-1.459a2.508 2.508 0 0 0-.777-1.067c-.342-.267-.76-.4-1.252-.4-.488 0-.904.135-1.248.4-.344.27-.604.625-.781 1.067a3.913 3.913 0 0 0-.264 1.459c0 .528.088 1.015.264 1.454.178.439.438.792.779 1.057.342.264.758.396 1.25.396m8.195.753a2.878 2.878 0 0 1-1.623-.467 3.156 3.156 0 0 1-1.101-1.291c-.265-.549-.397-1.185-.397-1.903 0-.727.133-1.366.397-1.918a3.124 3.124 0 0 1 1.101-1.293c.471-.31 1.012-.465 1.623-.465.612 0 1.152.156 1.621.467.467.312.834.742 1.1 1.293.267.552.4 1.189.4 1.916 0 .72-.133 1.354-.396 1.903-.266.55-.633.979-1.102 1.291-.469.311-1.01.467-1.623.467m0-.753c.492 0 .91-.132 1.252-.396.342-.265.601-.616.777-1.057.178-.439.266-.926.266-1.454 0-.53-.088-1.017-.266-1.459a2.508 2.508 0 0 0-.777-1.067c-.342-.267-.76-.4-1.252-.4-.488 0-.906.135-1.248.4-.344.27-.604.625-.781 1.067a3.913 3.913 0 0 0-.264 1.459c0 .528.088 1.015.264 1.454.178.439.438.792.779 1.057.34.264.758.396 1.25.396m5.446-8.85h.822v9.455h-.822zm10.443 9.603c-.611 0-1.152-.156-1.621-.467a3.145 3.145 0 0 1-1.103-1.291c-.264-.549-.396-1.185-.396-1.903 0-.727.132-1.366.396-1.918a3.113 3.113 0 0 1 1.103-1.293c.469-.31 1.01-.465 1.621-.465.613 0 1.153.156 1.621.467a3.18 3.18 0 0 1 1.102 1.293c.266.552.398 1.189.398 1.916 0 .72-.131 1.354-.396 1.903-.265.55-.633.979-1.102 1.291-.47.311-1.01.467-1.623.467m0-.753c.494 0 .91-.132 1.252-.396.342-.265.602-.616.777-1.057.178-.439.266-.926.266-1.454 0-.53-.088-1.017-.266-1.459a2.5 2.5 0 0 0-.777-1.067c-.342-.267-.758-.4-1.252-.4-.488 0-.904.135-1.248.4-.344.27-.604.625-.779 1.067a3.873 3.873 0 0 0-.266 1.459c0 .528.088 1.015.266 1.454.176.439.436.792.777 1.057.342.264.758.396 1.25.396m8.096-5.77h-3.484v-.715h3.484v.715zm-2.396 6.375v-8.129c0-.382.088-.703.267-.965.176-.263.407-.461.693-.597.287-.135.589-.202.91-.202a2.298 2.298 0 0 1 .877.157l-.24.721c-.063-.02-.137-.04-.227-.064s-.201-.037-.336-.037c-.358 0-.633.101-.828.301-.193.2-.289.486-.289.857l-.006 7.959h-.821v-.001zm8.907 0v-9.455h5.471v.776h-4.608v3.559h4.178v.776h-4.178v4.344zm7.536 0v-7.09h.799v1.09h.06c.142-.357.388-.646.741-.866.352-.22.752-.33 1.197-.33.068 0 .144.002.227.005s.152.007.207.01v.835a4.531 4.531 0 0 0-.193-.027 2.153 2.153 0 0 0-.3-.019c-.37 0-.698.077-.985.232a1.743 1.743 0 0 0-.931 1.582v4.58l-.822-.002zm7.697.148a2.878 2.878 0 0 1-1.623-.467 3.165 3.165 0 0 1-1.102-1.291c-.264-.549-.396-1.185-.396-1.903 0-.727.133-1.366.396-1.918a3.133 3.133 0 0 1 1.102-1.293c.471-.31 1.012-.465 1.623-.465.613 0 1.152.156 1.621.467.467.312.835.742 1.1 1.293.268.552.4 1.189.4 1.916 0 .72-.133 1.354-.396 1.903-.266.55-.633.979-1.102 1.291-.471.311-1.01.467-1.623.467m0-.753c.493 0 .91-.132 1.251-.396.342-.265.601-.616.778-1.057.177-.439.265-.926.265-1.454 0-.53-.088-1.017-.265-1.459a2.518 2.518 0 0 0-.778-1.067c-.341-.267-.758-.4-1.251-.4-.488 0-.906.135-1.249.4-.343.27-.603.625-.78 1.067s-.265.929-.265 1.459c0 .528.088 1.015.265 1.454a2.5 2.5 0 0 0 .778 1.057c.341.264.758.396 1.251.396m6.257-3.827v4.433h-.821v-7.091h.799v1.11h.074c.166-.361.424-.653.777-.872.352-.223.789-.33 1.309-.33.478 0 .896.099 1.258.297.361.199.644.489.846.875.201.385.301.855.301 1.416v4.595h-.82v-4.543c0-.582-.162-1.042-.488-1.38-.323-.34-.76-.508-1.303-.508-.373 0-.705.08-.994.239s-.518.391-.686.689c-.168.301-.252.658-.252 1.07m9.753-1.943h-3.385v-.715h3.385v.715zm-2.327-2.414h.826v6.938c0 .297.051.526.152.694s.232.286.396.356c.162.068.336.103.521.103a1.692 1.692 0 0 0 .48-.064l.176.743a2.022 2.022 0 0 1-.731.125c-.302 0-.592-.066-.869-.199a1.695 1.695 0 0 1-.686-.592c-.18-.261-.268-.587-.268-.975v-7.131h.003zm5.028.479a.605.605 0 0 1-.434-.174c-.121-.114-.181-.254-.181-.417s.06-.304.181-.418a.604.604 0 0 1 .434-.175c.17 0 .314.06.434.175.12.114.18.255.18.418s-.06.303-.18.417a.6.6 0 0 1-.434.174m-.42 1.219h.826v7.091h-.826v-7.091zm6.33 7.239c-.66 0-1.233-.154-1.717-.465-.482-.31-.855-.738-1.119-1.288s-.395-1.184-.395-1.899c0-.714.131-1.348.395-1.903.264-.555.627-.991 1.094-1.308a2.833 2.833 0 0 1 1.619-.474c.385 0 .754.07 1.111.211.357.14.678.354.963.642.284.289.51.649.676 1.086.166.435.25.949.25 1.543v.406h-5.539v-.725h4.699c0-.456-.093-.865-.275-1.23a2.193 2.193 0 0 0-.762-.865 1.998 1.998 0 0 0-1.123-.318c-.451 0-.846.12-1.188.359-.341.24-.609.558-.8.951a2.946 2.946 0 0 0-.294 1.293v.435c0 .563.097 1.055.294 1.476.194.421.472.745.833.976.359.231.785.348 1.277.348.336 0 .631-.053.885-.157a1.872 1.872 0 0 0 1.038-1.006l.779.254a2.274 2.274 0 0 1-.529.825 2.668 2.668 0 0 1-.914.607 3.28 3.28 0 0 1-1.258.226m5.17-.148v-7.09h.799v1.09h.06c.142-.357.39-.646.742-.866s.752-.33 1.198-.33c.066 0 .142.002.226.005.083.003.153.007.207.01v.835a4.665 4.665 0 0 0-.192-.027 2.193 2.193 0 0 0-.302-.019 2.05 2.05 0 0 0-.985.232 1.754 1.754 0 0 0-.681.645 1.774 1.774 0 0 0-.249.937v4.58l-.823-.002zm9.501 0v-9.455h5.485v.776h-4.621v3.559h4.33v.776h-4.33v3.569h4.714v.775zm8.578-7.09 1.829 3.023 1.828-3.023h.955l-2.282 3.545 2.282 3.546h-.955l-1.828-2.927-1.829 2.927h-.951l2.252-3.546-2.252-3.545zm6.711 9.75v-9.75h.797v1.353h.099c.1-.213.233-.431.405-.653.172-.224.402-.411.687-.565.285-.153.645-.23 1.078-.23.584 0 1.098.153 1.535.46.438.307.778.733 1.022 1.283.246.55.369 1.188.369 1.918 0 .733-.123 1.374-.369 1.926-.244.551-.584.979-1.022 1.287-.438.309-.947.463-1.525.463-.43 0-.785-.077-1.074-.23a2.19 2.19 0 0 1-.697-.57 3.045 3.045 0 0 1-.407-.663h-.074v3.977h-.822v-.006zm.811-6.201c0 .574.086 1.08.258 1.521.17.441.416.788.737 1.039.32.251.712.376 1.171.376.471 0 .868-.13 1.192-.39.326-.26.572-.611.744-1.055.17-.443.256-.94.256-1.492 0-.543-.084-1.035-.252-1.473s-.416-.783-.742-1.041c-.325-.258-.725-.386-1.198-.386-.462 0-.854.124-1.179.372-.321.247-.567.589-.735 1.024-.168.435-.252.939-.252 1.505m7.506-5.914h.821v9.455h-.821zm6.265 9.603c-.611 0-1.152-.156-1.621-.467a3.136 3.136 0 0 1-1.102-1.291c-.267-.549-.396-1.185-.396-1.903 0-.727.131-1.366.396-1.918a3.104 3.104 0 0 1 1.102-1.293c.469-.31 1.01-.465 1.621-.465.613 0 1.154.156 1.621.467.469.312.834.742 1.102 1.293.267.552.398 1.189.398 1.916 0 .72-.133 1.354-.396 1.903a3.15 3.15 0 0 1-1.102 1.291c-.468.311-1.009.467-1.623.467m0-.753c.494 0 .91-.132 1.252-.396s.603-.616.777-1.057c.178-.439.266-.926.266-1.454 0-.53-.088-1.017-.266-1.459a2.508 2.508 0 0 0-.777-1.067c-.342-.267-.758-.4-1.252-.4-.488 0-.904.135-1.248.4-.344.27-.604.625-.779 1.067a3.873 3.873 0 0 0-.266 1.459c0 .528.088 1.015.266 1.454.177.439.437.792.777 1.057.342.264.758.396 1.25.396m5.436.605v-7.09h.799v1.09h.061a1.79 1.79 0 0 1 .742-.866c.352-.22.752-.33 1.197-.33.065 0 .143.002.227.005l.207.01v.835a4.94 4.94 0 0 0-.192-.027 2.203 2.203 0 0 0-.302-.019c-.369 0-.696.077-.985.232a1.754 1.754 0 0 0-.681.645c-.166.274-.25.587-.25.937v4.58l-.823-.002zm7.088.162c-.431 0-.82-.084-1.175-.252a2.04 2.04 0 0 1-.846-.729c-.209-.316-.313-.705-.313-1.161 0-.351.065-.646.196-.886.136-.24.32-.437.564-.591s.531-.275.863-.364c.332-.09.696-.159 1.098-.208.398-.05.734-.093 1.01-.13.275-.036.484-.095.629-.175.146-.08.218-.209.218-.389v-.166c0-.482-.144-.863-.433-1.143-.287-.278-.699-.418-1.238-.418-.512 0-.928.112-1.25.337-.319.226-.547.489-.676.793l-.778-.28c.159-.389.383-.697.664-.931a2.7 2.7 0 0 1 .95-.503 3.618 3.618 0 0 1 1.914-.049c.293.071.566.192.818.366.252.175.457.416.615.726.155.311.233.701.233 1.175v4.815h-.821v-1.122h-.052a2.22 2.22 0 0 1-.438.609 2.295 2.295 0 0 1-.73.483c-.286.129-.63.193-1.022.193m.109-.752c.438 0 .816-.099 1.138-.291.317-.194.565-.452.739-.773s.261-.677.261-1.063v-1.024a.807.807 0 0 1-.308.157 3.888 3.888 0 0 1-.494.121c-.186.037-.371.064-.555.091l-.5.064c-.4.05-.742.126-1.023.23-.282.104-.502.248-.651.431-.15.184-.228.418-.228.704 0 .433.154.765.463 1 .307.235.693.353 1.158.353m8.186-5.785h-3.385v-.715h3.385v.715zm-2.326-2.414h.826v6.938c0 .297.051.526.151.694a.845.845 0 0 0 .397.356c.162.068.336.103.52.103a1.683 1.683 0 0 0 .48-.064l.176.743a2.016 2.016 0 0 1-.731.125c-.301 0-.592-.066-.869-.199a1.705 1.705 0 0 1-.687-.592c-.18-.261-.268-.587-.268-.975v-7.131h.005zm5.027.479a.605.605 0 0 1-.434-.174c-.121-.114-.18-.254-.18-.417s.061-.304.18-.418c.119-.115.264-.175.434-.175s.314.06.434.175c.121.114.182.255.182.418s-.061.303-.182.417a.6.6 0 0 1-.434.174m-.42 1.219h.826v7.091h-.826v-7.091zm6.221 7.239c-.613 0-1.152-.156-1.623-.467a3.165 3.165 0 0 1-1.102-1.291c-.264-.549-.396-1.185-.396-1.903 0-.727.133-1.366.396-1.918a3.133 3.133 0 0 1 1.102-1.293c.471-.31 1.01-.465 1.623-.465.611 0 1.152.156 1.619.467.469.312.836.742 1.104 1.293.266.552.396 1.189.396 1.916 0 .72-.131 1.354-.395 1.903-.266.55-.633.979-1.104 1.291-.468.311-1.009.467-1.62.467m0-.753c.492 0 .908-.132 1.25-.396s.602-.616.777-1.057c.178-.439.266-.926.266-1.454 0-.53-.088-1.017-.266-1.459a2.5 2.5 0 0 0-.777-1.067c-.342-.267-.758-.4-1.25-.4-.49 0-.906.135-1.25.4-.342.27-.604.625-.779 1.067a3.873 3.873 0 0 0-.266 1.459c0 .528.088 1.015.266 1.454.176.439.438.792.777 1.057.342.264.76.396 1.252.396m6.256-3.827v4.433h-.82v-7.091h.799v1.11h.072c.166-.361.428-.653.779-.872.352-.223.787-.33 1.309-.33.479 0 .896.099 1.258.297.361.199.645.489.846.875.201.385.303.855.303 1.416v4.595h-.822v-4.543c0-.582-.16-1.042-.486-1.38-.324-.34-.758-.508-1.305-.508-.371 0-.701.08-.992.239-.289.159-.518.391-.686.689s-.255.658-.255 1.07m11.837-3.878a.61.61 0 0 1-.434-.174c-.119-.114-.18-.254-.18-.417s.061-.304.18-.418a.61.61 0 0 1 .434-.175c.17 0 .314.06.436.175.121.114.18.255.18.418s-.059.303-.18.417a.611.611 0 0 1-.436.174m-.419 1.219h.826v7.091h-.826v-7.091zm4.326 2.659v4.433h-.822v-7.091h.799v1.11h.074c.166-.361.426-.653.777-.872.354-.223.789-.33 1.309-.33.479 0 .896.099 1.26.297.359.199.643.489.846.875.199.385.301.855.301 1.416v4.595h-.82v-4.543c0-.582-.162-1.042-.488-1.38-.324-.34-.758-.508-1.303-.508-.373 0-.703.08-.992.239-.291.159-.52.391-.688.689s-.253.658-.253 1.07m11.578 4.432v-9.455h5.484v.776h-4.621v3.559h4.33v.776h-4.33v3.569h4.715v.775zm9.875.162c-.43 0-.82-.084-1.174-.252s-.635-.41-.846-.729c-.209-.316-.313-.705-.313-1.161 0-.351.064-.646.195-.886.137-.24.32-.437.564-.591s.531-.275.863-.364c.332-.09.697-.159 1.098-.208.398-.05.734-.093 1.01-.13.275-.036.484-.095.629-.175.146-.08.219-.209.219-.389v-.166c0-.482-.145-.863-.434-1.143-.287-.278-.699-.418-1.238-.418-.512 0-.928.112-1.25.337-.318.226-.547.489-.676.793l-.777-.28c.158-.389.383-.697.664-.931.281-.231.6-.399.949-.503a3.618 3.618 0 0 1 1.914-.049c.293.071.566.192.818.366.252.175.457.416.615.726.156.311.234.701.234 1.175v4.815h-.822v-1.122h-.051a2.22 2.22 0 0 1-.438.609 2.306 2.306 0 0 1-.73.483c-.287.129-.631.193-1.023.193m.109-.752c.438 0 .816-.099 1.137-.291.318-.194.566-.452.74-.773s.26-.677.26-1.063v-1.024a.801.801 0 0 1-.307.157 3.888 3.888 0 0 1-.494.121c-.186.037-.371.064-.555.091l-.5.064c-.4.05-.742.126-1.023.23-.283.104-.502.248-.652.431-.15.184-.227.418-.227.704 0 .433.154.765.463 1 .307.235.693.353 1.158.353m5.615.59v-7.09h.799v1.09h.061a1.78 1.78 0 0 1 .742-.866c.352-.22.752-.33 1.197-.33.066 0 .143.002.227.005l.207.01v.835a4.787 4.787 0 0 0-.193-.027 2.189 2.189 0 0 0-.301-.019c-.369 0-.697.077-.986.232a1.75 1.75 0 0 0-.93 1.582v4.58l-.823-.002zm8.264-6.375h-3.385v-.715h3.385v.715zm-2.326-2.414h.826v6.938c0 .297.051.526.152.694.1.168.232.286.396.356.16.068.336.103.52.103a1.7 1.7 0 0 0 .48-.064l.176.743a2.029 2.029 0 0 1-.731.125c-.301 0-.592-.066-.869-.199a1.695 1.695 0 0 1-.686-.592c-.18-.261-.268-.587-.268-.975v-7.131h.004zm5.426 4.357v4.433h-.822v-9.455h.822v3.477h.072c.166-.365.424-.658.775-.878.348-.218.791-.325 1.326-.325.479 0 .902.098 1.264.295.363.196.646.487.85.873.203.384.305.856.305 1.42v4.595h-.824v-4.543c0-.585-.164-1.046-.488-1.383-.322-.337-.762-.505-1.313-.505-.377 0-.715.08-1.01.239s-.529.391-.699.689c-.174.299-.258.656-.258 1.068m13.439 4.594c-.428 0-.818-.084-1.174-.252a2.022 2.022 0 0 1-.844-.729c-.209-.316-.314-.705-.314-1.161 0-.351.064-.646.197-.886s.32-.437.564-.591c.242-.154.531-.275.863-.364.332-.09.697-.159 1.1-.208.395-.05.732-.093 1.008-.13.273-.036.486-.095.631-.175s.217-.209.217-.389v-.166c0-.482-.145-.863-.432-1.143-.287-.278-.701-.418-1.24-.418-.51 0-.926.112-1.248.337-.32.226-.547.489-.676.793l-.781-.28c.16-.389.383-.697.666-.931.283-.232.6-.399.949-.503a3.611 3.611 0 0 1 1.914-.049c.295.071.568.192.82.366.252.175.457.416.613.726.154.311.234.701.234 1.175v4.815h-.822v-1.122h-.051c-.1.209-.244.412-.438.609-.193.195-.438.357-.73.483s-.631.193-1.026.193m.111-.752c.438 0 .814-.099 1.135-.291.32-.194.566-.452.74-.773s.262-.677.262-1.063v-1.024a.817.817 0 0 1-.307.157 4.065 4.065 0 0 1-.494.121c-.188.037-.371.064-.557.091l-.498.064c-.4.05-.742.126-1.025.23-.281.104-.5.248-.65.431-.15.184-.227.418-.227.704 0 .433.154.765.461 1 .309.235.696.353 1.16.353m6.438-3.842v4.433h-.822v-7.091h.799v1.11h.074c.166-.361.426-.653.777-.872.354-.223.789-.33 1.309-.33.477 0 .896.099 1.26.297.359.199.641.489.844.875.201.385.303.855.303 1.416v4.595h-.82v-4.543c0-.582-.162-1.042-.488-1.38-.324-.34-.758-.508-1.303-.508-.373 0-.703.08-.992.239-.291.159-.52.391-.688.689s-.253.658-.253 1.07m9.754 4.58c-.582 0-1.09-.154-1.529-.463-.436-.308-.775-.736-1.021-1.287-.244-.552-.365-1.191-.365-1.926 0-.729.121-1.368.365-1.918.246-.55.586-.978 1.027-1.284.439-.306.951-.459 1.537-.459.432 0 .789.076 1.074.229.287.152.516.341.689.565.172.226.305.442.4.655h.074V16.31h.824v9.455h-.803V24.45h-.098a3.11 3.11 0 0 1-.406.663c-.176.228-.406.416-.693.57s-.645.233-1.075.233m.096-.753c.459 0 .852-.125 1.174-.376s.57-.597.74-1.038.256-.947.256-1.521c0-.565-.084-1.066-.254-1.502a2.291 2.291 0 0 0-.738-1.024c-.322-.248-.715-.372-1.178-.372-.473 0-.873.129-1.197.386-.324.258-.568.604-.738 1.041a4.09 4.09 0 0 0-.252 1.473c0 .552.084 1.049.256 1.492.17.442.414.795.74 1.055.323.256.72.386 1.191.386m15.324-6.485a1.723 1.723 0 0 0-.697-1.256c-.412-.312-.932-.468-1.557-.468-.438 0-.826.076-1.16.228s-.596.358-.785.625-.283.567-.283.908c0 .248.053.467.162.653.107.188.254.351.436.483.186.134.389.248.609.344.223.095.449.175.676.24l.998.286c.301.082.605.188.904.317.301.13.578.291.828.487.252.194.453.436.605.715.152.282.229.62.229 1.016 0 .504-.131.957-.393 1.359-.26.404-.637.725-1.127.958-.488.236-1.074.354-1.758.354-.645 0-1.203-.106-1.676-.32a2.701 2.701 0 0 1-1.117-.889 2.515 2.515 0 0 1-.457-1.316h.887c.029.373.154.688.369.946s.494.454.84.589c.344.134.729.201 1.154.201.471 0 .889-.079 1.258-.238.367-.158.658-.38.867-.664.211-.285.316-.617.316-.996 0-.317-.082-.588-.25-.805a1.94 1.94 0 0 0-.693-.547 6.385 6.385 0 0 0-1.033-.394l-1.131-.333c-.74-.221-1.316-.527-1.727-.919-.408-.39-.613-.889-.613-1.494 0-.509.137-.954.408-1.342a2.727 2.727 0 0 1 1.105-.903c.469-.219.99-.326 1.574-.326.586 0 1.107.106 1.561.324.451.215.813.51 1.076.888.268.377.408.806.43 1.286l-.835.003zm3.365 9.75v-9.75h.797v1.353h.098c.1-.213.234-.431.406-.653.172-.224.4-.411.686-.565.285-.153.646-.23 1.078-.23.584 0 1.098.153 1.535.46.439.307.779.733 1.025 1.283.244.55.367 1.188.367 1.918 0 .733-.123 1.374-.367 1.926-.246.551-.586.979-1.025 1.287-.438.309-.947.463-1.525.463-.428 0-.785-.077-1.074-.23a2.181 2.181 0 0 1-.695-.57 3.132 3.132 0 0 1-.408-.663h-.074v3.977h-.822v-.006zm.813-6.201c0 .574.084 1.08.256 1.521.17.441.416.788.738 1.039s.711.376 1.17.376c.471 0 .869-.13 1.193-.39.326-.26.572-.611.744-1.055.17-.443.256-.94.256-1.492 0-.543-.084-1.035-.252-1.473s-.414-.783-.74-1.041-.727-.386-1.201-.386c-.461 0-.854.124-1.178.372-.322.247-.568.589-.736 1.024-.168.435-.25.939-.25 1.505m9.419 3.703c-.428 0-.818-.084-1.172-.252a2.022 2.022 0 0 1-.846-.729c-.209-.316-.314-.705-.314-1.161 0-.351.064-.646.197-.886s.32-.437.563-.591c.244-.154.533-.275.865-.364.332-.09.697-.159 1.098-.208.396-.05.732-.093 1.01-.13.273-.036.484-.095.631-.175.145-.08.217-.209.217-.389v-.166c0-.482-.146-.863-.432-1.143-.287-.278-.701-.418-1.238-.418-.512 0-.928.112-1.25.337-.32.226-.547.489-.676.793l-.781-.28c.16-.389.383-.697.666-.931.283-.232.6-.399.951-.503a3.605 3.605 0 0 1 1.912-.049c.295.071.566.192.818.366.252.175.457.416.615.726.156.311.234.701.234 1.175v4.815h-.822v-1.122h-.051a2.22 2.22 0 0 1-.438.609 2.317 2.317 0 0 1-.73.483c-.29.127-.632.193-1.027.193m.112-.752c.438 0 .814-.099 1.135-.291.32-.194.568-.452.742-.773s.26-.677.26-1.063v-1.024a.801.801 0 0 1-.307.157 3.975 3.975 0 0 1-.494.121 10.76 10.76 0 0 1-.557.091c-.184.024-.35.046-.498.064-.4.05-.742.126-1.025.23-.281.104-.5.248-.65.431a1.089 1.089 0 0 0-.227.704c0 .433.154.765.463 1 .306.235.693.353 1.158.353m8.388.738c-.633 0-1.186-.159-1.654-.478a3.12 3.12 0 0 1-1.092-1.301c-.258-.552-.389-1.179-.389-1.884 0-.711.133-1.344.395-1.897a3.196 3.196 0 0 1 1.098-1.305c.467-.314 1.01-.474 1.629-.474.475 0 .904.093 1.289.275s.703.439.953.771c.252.331.408.716.473 1.155h-.83a1.87 1.87 0 0 0-.621-1.026c-.328-.284-.744-.428-1.25-.428-.451 0-.852.122-1.199.367a2.408 2.408 0 0 0-.813 1.021c-.197.437-.295.939-.295 1.512 0 .576.096 1.086.285 1.526.191.441.463.786.807 1.036.348.249.752.373 1.217.373.314 0 .602-.06.861-.178a1.76 1.76 0 0 0 1.011-1.285h.83c-.061.429-.213.81-.453 1.143a2.515 2.515 0 0 1-.938.787c-.382.194-.821.29-1.314.29m7.784 0c-.662 0-1.234-.154-1.719-.465-.482-.31-.855-.738-1.119-1.288s-.393-1.184-.393-1.899c0-.714.129-1.348.393-1.903a3.214 3.214 0 0 1 1.094-1.308 2.838 2.838 0 0 1 1.619-.474c.385 0 .756.07 1.111.211.357.14.68.354.963.642.285.289.51.649.678 1.086.166.435.248.949.248 1.543v.406h-5.539v-.725h4.699c0-.456-.092-.865-.275-1.23a2.163 2.163 0 0 0-.762-.865 1.998 1.998 0 0 0-1.123-.318c-.449 0-.846.12-1.188.359-.342.24-.607.558-.801.951a2.988 2.988 0 0 0-.293 1.293v.435c0 .563.098 1.055.293 1.476s.475.745.834.976c.359.231.787.348 1.279.348.334 0 .629-.053.883-.157s.469-.244.643-.422.305-.372.395-.584l.779.254a2.294 2.294 0 0 1-.527.825c-.246.254-.551.455-.914.607s-.784.226-1.258.226m10.16-10.855c-1.416 1.184-2.574 3.354-2.574 5.98 0 2.689 1.197 4.836 2.574 5.979v.065h-.779c-1.313-1.185-2.482-3.367-2.482-6.045 0-2.68 1.172-4.862 2.482-6.046h.779v.067zm9.637 4.207h-.869a2.699 2.699 0 0 0-.348-.897 2.902 2.902 0 0 0-.631-.724 2.884 2.884 0 0 0-.859-.479 3.111 3.111 0 0 0-1.037-.171c-.598 0-1.143.155-1.633.467s-.883.768-1.178 1.369c-.293.602-.439 1.338-.439 2.209 0 .877.146 1.615.439 2.216.295.601.688 1.054 1.178 1.363s1.035.465 1.633.465c.371 0 .719-.058 1.037-.171a2.841 2.841 0 0 0 1.49-1.201c.168-.278.283-.577.348-.901h.869a3.868 3.868 0 0 1-.432 1.213 3.622 3.622 0 0 1-.805.98c-.324.28-.697.499-1.117.655a3.966 3.966 0 0 1-1.391.234c-.795 0-1.5-.198-2.113-.598-.617-.397-1.1-.961-1.449-1.688-.35-.726-.523-1.583-.523-2.57 0-.988.174-1.846.523-2.572s.832-1.287 1.449-1.688c.613-.396 1.318-.599 2.113-.599.504 0 .969.078 1.391.233a3.657 3.657 0 0 1 1.922 1.636c.209.377.353.782.432 1.219m6.802 3.791v-4.381h.82v7.09h-.82v-1.176h-.064c-.166.361-.43.664-.789.905-.361.242-.801.362-1.322.362a2.39 2.39 0 0 1-1.203-.298 2.069 2.069 0 0 1-.828-.875c-.199-.385-.299-.857-.299-1.418v-4.592h.822v4.543c0 .554.162.998.488 1.336.326.336.744.504 1.258.504.318 0 .625-.075.922-.229.295-.152.537-.379.729-.676s.286-.662.286-1.095m3.487 2.709v-7.09h.799v1.09h.061c.143-.357.389-.646.74-.866.354-.22.752-.33 1.197-.33.068 0 .145.002.229.005s.15.007.205.01v.835a4.546 4.546 0 0 0-.191-.027 2.311 2.311 0 0 0-.301-.019c-.369 0-.697.077-.984.232a1.743 1.743 0 0 0-.682.645 1.773 1.773 0 0 0-.248.937v4.58l-.825-.002zm5.17 0v-7.09h.799v1.09h.063c.141-.357.389-.646.74-.866s.75-.33 1.195-.33c.068 0 .146.002.229.005.084.003.15.007.209.01v.835a5.041 5.041 0 0 0-.195-.027 2.139 2.139 0 0 0-.299-.019c-.369 0-.699.077-.986.232a1.77 1.77 0 0 0-.682.645 1.77 1.77 0 0 0-.248.937v4.58l-.825-.002zm7.802.148c-.662 0-1.234-.154-1.719-.465-.482-.31-.855-.738-1.119-1.288s-.393-1.184-.393-1.899c0-.714.129-1.348.393-1.903a3.214 3.214 0 0 1 1.094-1.308 2.838 2.838 0 0 1 1.619-.474c.385 0 .756.07 1.111.211.355.14.68.354.963.642.285.289.51.649.678 1.086.166.435.248.949.248 1.543v.406h-5.539v-.725h4.699c0-.456-.092-.865-.275-1.23a2.163 2.163 0 0 0-.762-.865 1.998 1.998 0 0 0-1.123-.318c-.449 0-.846.12-1.188.359-.344.24-.607.558-.803.951a3.017 3.017 0 0 0-.293 1.293v.435c0 .563.1 1.055.293 1.476.195.421.477.745.834.976.359.231.787.348 1.279.348.334 0 .629-.053.883-.157s.471-.244.645-.422.305-.372.395-.584l.779.254a2.294 2.294 0 0 1-.527.825c-.246.254-.551.455-.914.607s-.783.226-1.258.226m5.991-4.58v4.433h-.82v-7.091h.801v1.11h.07c.166-.361.43-.653.779-.872.352-.223.787-.33 1.309-.33.479 0 .896.099 1.26.297.359.199.643.489.844.875.201.385.303.855.303 1.416v4.595h-.822v-4.543c0-.582-.16-1.042-.486-1.38-.324-.34-.758-.508-1.305-.508-.371 0-.701.08-.992.239-.289.159-.518.391-.686.689s-.255.658-.255 1.07m9.753-1.943h-3.385v-.715h3.385v.715zm-2.328-2.414h.826v6.938c0 .297.051.526.154.694.1.168.23.286.395.356.162.068.336.103.521.103a1.7 1.7 0 0 0 .48-.064l.174.743a2.016 2.016 0 0 1-.729.125c-.303 0-.592-.066-.871-.199a1.703 1.703 0 0 1-.684-.592c-.182-.261-.271-.587-.271-.975v-7.131h.005zm4.606-.666h.822v9.455h-.822zm3.996 12.115c-.164 0-.314-.018-.457-.047a1.597 1.597 0 0 1-.338-.103l.223-.725c.279.086.529.117.746.095a.914.914 0 0 0 .582-.295c.17-.175.32-.44.453-.798l.258-.719-2.607-7.16h.893l2.104 6.006h.064l2.105-6.006h.891l-3 8.211a3.012 3.012 0 0 1-.467.856c-.186.229-.398.4-.639.515-.243.113-.514.17-.811.17m15.719-5.369v-4.381h.822v7.09h-.822v-1.176h-.063c-.166.361-.43.664-.791.905-.359.242-.801.362-1.32.362-.451 0-.854-.099-1.205-.298a2.077 2.077 0 0 1-.826-.875c-.199-.385-.299-.857-.299-1.418v-4.592h.82v4.543c0 .554.164.998.49 1.336.326.336.744.504 1.256.504.32 0 .627-.075.922-.229.297-.152.539-.379.73-.676s.286-.662.286-1.095m4.31-1.723v4.433h-.822v-7.091h.799v1.11h.074c.166-.361.426-.653.777-.872.352-.223.789-.33 1.309-.33.477 0 .896.099 1.26.297.359.199.641.489.844.875.201.385.301.855.301 1.416v4.595h-.818v-4.543c0-.582-.162-1.042-.488-1.38-.324-.34-.758-.508-1.303-.508-.373 0-.703.08-.992.239-.291.159-.521.391-.689.689s-.252.658-.252 1.07m9.754 4.58c-.582 0-1.09-.154-1.529-.463-.436-.308-.777-.736-1.021-1.287-.246-.552-.367-1.191-.367-1.926 0-.729.121-1.368.367-1.918.244-.55.586-.978 1.027-1.284.439-.306.951-.459 1.537-.459.43 0 .789.076 1.074.229.287.152.516.341.689.565.172.226.305.442.4.655h.072V16.31h.826v9.455h-.803V24.45h-.098a3.11 3.11 0 0 1-.406.663c-.176.228-.406.416-.693.57s-.645.233-1.075.233m.096-.753c.459 0 .852-.125 1.174-.376s.57-.597.74-1.038.256-.947.256-1.521c0-.565-.084-1.066-.254-1.502a2.291 2.291 0 0 0-.738-1.024c-.322-.248-.715-.372-1.178-.372-.473 0-.873.129-1.197.386-.324.258-.57.604-.738 1.041s-.252.93-.252 1.473c0 .552.084 1.049.254 1.492.172.442.416.795.74 1.055.326.256.722.386 1.193.386m8.613.753c-.662 0-1.234-.154-1.719-.465-.482-.31-.855-.738-1.119-1.288s-.393-1.184-.393-1.899c0-.714.129-1.348.393-1.903a3.214 3.214 0 0 1 1.094-1.308 2.838 2.838 0 0 1 1.619-.474c.385 0 .756.07 1.111.211.357.14.68.354.963.642.285.289.51.649.678 1.086.166.435.248.949.248 1.543v.406h-5.539v-.725h4.699c0-.456-.092-.865-.275-1.23a2.163 2.163 0 0 0-.762-.865 1.998 1.998 0 0 0-1.123-.318c-.449 0-.846.12-1.188.359-.342.24-.607.558-.801.951a2.988 2.988 0 0 0-.293 1.293v.435c0 .563.098 1.055.293 1.476.193.421.475.745.834.976.357.231.787.348 1.277.348.334 0 .629-.053.885-.157a1.883 1.883 0 0 0 1.038-1.006l.779.254a2.294 2.294 0 0 1-.527.825c-.246.254-.551.455-.914.607s-.783.226-1.258.226m5.17-.148v-7.09h.797v1.09h.061a1.8 1.8 0 0 1 .742-.866c.352-.22.752-.33 1.197-.33.068 0 .143.002.227.005l.207.01v.835a4.787 4.787 0 0 0-.193-.027 2.288 2.288 0 0 0-.301-.019c-.369 0-.697.077-.982.232a1.748 1.748 0 0 0-.684.645c-.166.274-.25.587-.25.937v4.58l-.821-.002zm11.883.148c-.582 0-1.09-.154-1.527-.463-.436-.308-.775-.736-1.02-1.287-.246-.552-.369-1.191-.369-1.926 0-.729.123-1.368.369-1.918.244-.55.586-.978 1.023-1.284.439-.306.953-.459 1.537-.459.434 0 .789.076 1.076.229s.516.341.688.565c.176.226.309.442.402.655h.074V16.31h.826v9.455h-.805V24.45H619a3.15 3.15 0 0 1-.406.663 2.124 2.124 0 0 1-.695.57c-.286.156-.646.233-1.077.233m.097-.753c.459 0 .85-.125 1.172-.376.324-.251.57-.597.742-1.038.17-.441.256-.947.256-1.521 0-.565-.086-1.066-.254-1.502-.17-.437-.416-.777-.738-1.024-.324-.248-.717-.372-1.178-.372-.475 0-.873.129-1.199.386-.322.258-.57.604-.738 1.041-.166.438-.25.93-.25 1.473 0 .552.084 1.049.252 1.492.17.442.418.795.742 1.055s.723.386 1.193.386m8.612.753c-.662 0-1.232-.154-1.717-.465a3.046 3.046 0 0 1-1.119-1.288c-.264-.55-.395-1.184-.395-1.899 0-.714.131-1.348.395-1.903a3.177 3.177 0 0 1 1.094-1.308 2.832 2.832 0 0 1 1.617-.474c.385 0 .756.07 1.113.211.357.14.678.354.963.642.285.289.51.649.676 1.086.166.435.25.949.25 1.543v.406h-5.541v-.725h4.701c0-.456-.092-.865-.275-1.23a2.178 2.178 0 0 0-.762-.865 2 2 0 0 0-1.125-.318c-.449 0-.844.12-1.186.359-.342.24-.609.558-.801.951a2.932 2.932 0 0 0-.293 1.293v.435c0 .563.098 1.055.293 1.476s.473.745.832.976c.361.231.787.348 1.279.348.336 0 .631-.053.885-.157s.469-.244.641-.422c.174-.178.307-.372.395-.584l.781.254a2.274 2.274 0 0 1-.529.825 2.668 2.668 0 0 1-.914.607c-.364.15-.784.226-1.258.226m10.373-7.238-2.59 7.091h-.877l-2.59-7.091h.891l2.105 6.006h.065l2.105-6.006zm4.638 7.238c-.662 0-1.232-.154-1.717-.465a3.033 3.033 0 0 1-1.119-1.288c-.264-.55-.396-1.184-.396-1.899 0-.714.133-1.348.396-1.903a3.177 3.177 0 0 1 1.094-1.308 2.832 2.832 0 0 1 1.617-.474c.385 0 .756.07 1.113.211.355.14.678.354.963.642.285.289.51.649.676 1.086.166.435.25.949.25 1.543v.406h-5.541v-.725h4.701c0-.456-.092-.865-.275-1.23s-.438-.652-.762-.865a2 2 0 0 0-1.125-.318c-.449 0-.844.12-1.186.359a2.46 2.46 0 0 0-.803.951 2.96 2.96 0 0 0-.293 1.293v.435c0 .563.1 1.055.293 1.476.195.421.475.745.832.976.361.231.787.348 1.279.348.336 0 .631-.053.885-.157s.469-.244.643-.422.307-.372.395-.584l.781.254a2.274 2.274 0 0 1-.529.825 2.668 2.668 0 0 1-.914.607c-.363.15-.783.226-1.258.226m5.188-9.603h.82v9.455h-.82zm6.266 9.603c-.613 0-1.154-.156-1.623-.467a3.165 3.165 0 0 1-1.102-1.291c-.264-.549-.396-1.185-.396-1.903 0-.727.133-1.366.396-1.918.266-.554.633-.983 1.102-1.293s1.01-.465 1.623-.465c.611 0 1.152.156 1.621.467.467.312.834.742 1.1 1.293.27.552.4 1.189.4 1.916 0 .72-.133 1.354-.396 1.903-.266.55-.633.979-1.102 1.291a2.878 2.878 0 0 1-1.623.467m0-.753c.492 0 .91-.132 1.25-.396a2.45 2.45 0 0 0 .779-1.057c.176-.439.266-.926.266-1.454 0-.53-.09-1.017-.266-1.459s-.438-.8-.779-1.067c-.34-.267-.758-.4-1.25-.4-.49 0-.906.135-1.248.4-.344.27-.604.625-.781 1.067s-.266.929-.266 1.459c0 .528.088 1.015.266 1.454s.438.792.777 1.057c.341.264.759.396 1.252.396m5.435 3.265v-9.75h.799v1.353h.096c.1-.213.234-.431.406-.653.174-.224.402-.411.686-.565.285-.153.646-.23 1.078-.23.586 0 1.098.153 1.535.46.439.307.781.733 1.025 1.283.246.55.367 1.188.367 1.918 0 .733-.121 1.374-.367 1.926-.244.551-.586.979-1.025 1.287-.438.309-.947.463-1.525.463-.428 0-.785-.077-1.074-.23a2.151 2.151 0 0 1-.693-.57 3.065 3.065 0 0 1-.41-.663h-.072v3.977h-.824v-.006zm.813-6.201c0 .574.086 1.08.256 1.521.17.441.418.788.738 1.039.322.251.713.376 1.17.376.471 0 .869-.13 1.193-.39.326-.26.572-.611.744-1.055.17-.443.256-.94.256-1.492 0-.543-.084-1.035-.252-1.473s-.414-.783-.74-1.041-.727-.386-1.201-.386c-.461 0-.852.124-1.176.372-.324.247-.568.589-.736 1.024-.168.435-.252.939-.252 1.505m7.494 3.541v-7.09h.799v1.09h.074c.141-.367.377-.655.707-.866.332-.211.73-.315 1.193-.315.49 0 .893.114 1.207.345.316.229.553.543.709.943h.061c.16-.396.42-.707.783-.939.361-.232.801-.349 1.318-.349.658 0 1.178.207 1.559.62.383.414.572 1.02.572 1.813v4.75h-.82v-4.75c0-.561-.143-.979-.43-1.261-.287-.28-.664-.42-1.131-.42-.541 0-.959.166-1.25.499-.293.332-.439.754-.439 1.266v4.666h-.84v-4.823c0-.479-.135-.868-.402-1.164-.268-.295-.645-.442-1.131-.442-.326 0-.619.08-.879.239-.262.16-.465.384-.615.668a2.09 2.09 0 0 0-.223.981v4.541l-.822-.002zm14.506.148c-.662 0-1.234-.154-1.717-.465a3.064 3.064 0 0 1-1.121-1.288c-.262-.55-.393-1.184-.393-1.899 0-.714.131-1.348.393-1.903a3.197 3.197 0 0 1 1.096-1.308 2.827 2.827 0 0 1 1.617-.474c.385 0 .756.07 1.113.211.355.14.678.354.963.642.283.289.51.649.676 1.086.166.435.248.949.248 1.543v.406h-5.539v-.725h4.699c0-.456-.092-.865-.273-1.23a2.193 2.193 0 0 0-.762-.865 2.005 2.005 0 0 0-1.125-.318c-.449 0-.844.12-1.186.359-.342.24-.609.558-.801.951a2.96 2.96 0 0 0-.295 1.293v.435c0 .563.098 1.055.295 1.476.195.421.473.745.832.976.361.231.787.348 1.279.348.336 0 .631-.053.885-.157s.469-.244.641-.422c.174-.178.305-.372.395-.584l.781.254a2.328 2.328 0 0 1-.529.825 2.668 2.668 0 0 1-.914.607c-.364.15-.784.226-1.258.226m5.988-4.58v4.433h-.82v-7.091h.799v1.11h.072c.166-.361.428-.653.779-.872.352-.223.787-.33 1.309-.33.477 0 .896.099 1.258.297.361.199.645.489.844.875.201.385.305.855.305 1.416v4.595h-.822v-4.543c0-.582-.16-1.042-.486-1.38-.324-.34-.758-.508-1.305-.508-.371 0-.701.08-.992.239-.289.159-.518.391-.686.689s-.255.658-.255 1.07m9.754-1.943h-3.385v-.715h3.385v.715zm-2.328-2.414h.826v6.938c0 .297.051.526.152.694s.234.286.398.356c.162.068.336.103.52.103a1.71 1.71 0 0 0 .482-.064l.174.743a2.029 2.029 0 0 1-.729.125c-.305 0-.596-.066-.871-.199a1.74 1.74 0 0 1-.688-.592c-.178-.261-.268-.587-.268-.975v-7.131h.004zm4.082 10.042c1.418-1.184 2.574-3.354 2.574-5.979 0-2.691-1.195-4.837-2.574-5.98v-.064h.781c1.324 1.185 2.482 3.367 2.482 6.046 0 2.678-1.158 4.861-2.482 6.045h-.781v-.068z" fill="#FFF"/></svg>